<svg enable-background="new 0 0 1400 980" height="980" viewBox="0 0 1400 980" width="1400" xmlns="http://www.w3.org/2000/svg"><path d="m356.9 257.5c-27.2-7.1-120.2-10.7-158.9 25-38.6 35.7-42.3 128.7-37.3 156.4s12.5 21.7 21.3 11.4-7.6-82.1 47.9-133.4 123-28.6 134-36.6c10.8-7.9 20.2-15.7-7-22.8z" fill="#d39429"/><path d="m222.1 267.4 18.3 40.8-20.1 18.6-39.3-21.4 16.1-23.9z" fill="#007e4a"/><path d="m187.9 422.8-30.8.7 2.1-22.4 30.2 4.2z" fill="#e92b2e"/><path d="m159 398.9h30.5v8.5h-30.5z" fill="#231412" transform="matrix(.9902 .14 -.14 .9902 58.1464 -20.4207)"/><path d="m168.3 407.7h8.5v30.8h-8.5z" fill="#231412" transform="matrix(.02171867 .9998 -.9998 .02171867 591.8274 241.4587)"/><path d="m338.7 283.4 3.1-30.7-22.5.3 1.8 30.5z" fill="#e92b2e"/><path d="m305 264h30.5v8.5h-30.5z" fill="#231412" transform="matrix(.06217251 .9981 -.9981 .06217251 568.0132 -68.0157)"/><path d="m336 252.7h8.5v30.8h-8.5z" fill="#231412" transform="matrix(.995 .09973402 -.09973402 .995 28.433 -32.595)"/><path d="m232.7 320-5.8-6.2c46-42.5 98.5-39.4 123.8-37.9 5.5.3 10.2.6 12.3.2 4.3-.8 7.4-3.6 7.5-5.6.1-1.9-2.9-5.8-14.7-8.9-24.2-6.3-116.8-11.2-154.9 24l-5.8-6.2c40.1-37 133.9-33.6 162.8-26 17.8 4.6 21.2 12.1 21 17.5-.3 7.3-7.5 12.4-14.4 13.7-3.1.6-7.8.3-14.4-.1-24-1.5-74.1-4.5-117.4 35.5z" fill="#231412"/><path d="m172.7 462c-.2 0-.3 0-.5 0-5.4-.2-12.5-4.3-15.8-22.3-5.3-29.4-1.4-123.3 38.6-160.3l5.8 6.2c-38.1 35.2-40.5 127.9-36.1 152.5 2.1 12 5.9 15.3 7.7 15.3 2 .1 5.1-2.8 6.2-7 .5-2.1.6-6.8.7-12.3.5-25.3 1.5-77.9 47.4-120.4l5.8 6.2c-43.3 40-44.2 90.2-44.7 114.3-.1 6.5-.2 11.3-1 14.3-1.6 6.9-7 13.5-14.1 13.5z" fill="#231412"/><path d="m178.3 311.8h44.7v8.5h-44.7z" fill="#231412" transform="matrix(.8782 .4784 -.4784 .8782 175.6445 -57.4952)"/><path d="m208.9 283.5h44.7v8.5h-44.7z" fill="#231412" transform="matrix(.4083 .9128 -.9128 .4083 399.5376 -40.8259)"/><ellipse cx="185.8" cy="349.1" fill="#e92b2e" rx="6.5" ry="6.7" transform="matrix(.7342 -.6789 .6789 .7342 -187.59 218.9398)"/><ellipse cx="265.3" cy="275.5" fill="#e92b2e" rx="6.5" ry="6.7" transform="matrix(.7342 -.6789 .6789 .7342 -116.5555 253.3721)"/><path d="m585.4 389.5c43.3-56.2 30.1-102.1 24.4-116-1.2-2.9-3.5-5.2-6.4-6.4-13.9-5.7-59.8-18.8-116 24.4-63.8 49.1-67.5 113.5-57 147.1 1.2 3.8 4.1 6.7 7.9 7.9 33.6 10.5 98 6.8 147.1-57z" fill="#ac4925"/><path d="m430.1 374.4c-3.4 13.2-4.5 25.7-4.1 37.1l39.4 39.4c11.3.4 23.9-.7 37.1-4.1z" fill="#f4f4f4"/><path d="m611.1 338.2c3.4-13.2 4.5-25.7 4.1-37.1l-39.4-39.4c-11.3-.4-23.9.7-37.1 4.1z" fill="#f4f4f4"/><path d="m470 455.2c-1.6 0-3.2 0-4.8-.1l-1.7-.1-41.8-41.8-.1-1.7c-.5-12.7.9-25.6 4.2-38.3l1.9-7.2 82.9 82.9-7.2 1.9c-11 3-22.2 4.4-33.4 4.4zm-2.8-8.5c8.9.2 17.9-.6 26.8-2.3l-61.5-61.5c-1.8 8.9-2.5 17.9-2.3 26.8z" fill="#231412"/><path d="m613.4 346.5-82.9-82.9 7.2-1.9c12.7-3.3 25.6-4.7 38.3-4.2l1.7.1 41.8 41.8.1 1.7c.5 12.7-.9 25.6-4.2 38.3zm-66.2-78.3 61.5 61.5c1.8-8.9 2.5-17.9 2.3-26.8l-37-37c-8.9-.2-17.9.6-26.8 2.3z" fill="#231412"/><path d="m469.8 455.3c-11.6 0-22.7-1.6-32.8-4.7-5.1-1.6-9.1-5.6-10.7-10.7-6.5-20.7-6.2-46.3.6-70.2 8.9-31.1 28.9-59.3 57.9-81.6 58.4-44.9 106.8-30.5 120.2-25 3.9 1.6 7.1 4.8 8.7 8.7 5.5 13.4 19.9 61.8-25 120.2-22.3 28.9-50.5 49-81.6 57.9-12.2 3.6-25 5.4-37.3 5.4zm99-190.3c-20.4 0-48 6.2-78.8 29.9-63.7 49-64.9 112.6-55.6 142.5.8 2.4 2.7 4.3 5.1 5.1 29.9 9.3 93.5 8.1 142.5-55.6 42.2-54.8 28.9-99.4 23.9-111.8-.8-1.8-2.2-3.3-4.1-4.1-5.4-2.2-17-6-33-6z" fill="#231412"/><path d="m478 403.2c-1.1 0-2.2-.4-3-1.2-1.7-1.7-1.7-4.4 0-6l82.3-82.3c1.7-1.7 4.4-1.7 6 0 1.7 1.7 1.7 4.4 0 6l-82.3 82.3c-.8.8-1.9 1.2-3 1.2z" fill="#231412"/><path d="m561.2 335.4c-1.1 0-2.2-.4-3-1.2l-15.2-15.3c-1.7-1.7-1.7-4.4 0-6 1.7-1.7 4.4-1.7 6 0l15.3 15.3c1.7 1.7 1.7 4.4 0 6-.9.8-2 1.2-3.1 1.2z" fill="#231412"/><path d="m544.3 352.4c-1.1 0-2.2-.4-3-1.2l-15.3-15.3c-1.7-1.7-1.7-4.4 0-6 1.7-1.7 4.4-1.7 6 0l15.3 15.3c1.7 1.7 1.7 4.4 0 6-.8.8-1.9 1.2-3 1.2z" fill="#231412"/><path d="m527.3 369.3c-1.1 0-2.2-.4-3-1.2l-15.3-15.3c-1.7-1.7-1.7-4.4 0-6 1.7-1.7 4.4-1.7 6 0l15.3 15.3c1.7 1.7 1.7 4.4 0 6-.8.8-1.9 1.2-3 1.2z" fill="#231412"/><path d="m510.3 386.3c-1.1 0-2.2-.4-3-1.2l-15.3-15.3c-1.7-1.7-1.7-4.4 0-6 1.7-1.7 4.4-1.7 6 0l15.3 15.3c1.7 1.7 1.7 4.4 0 6-.8.8-1.9 1.2-3 1.2z" fill="#231412"/><path d="m493.4 403.3c-1.1 0-2.2-.4-3-1.2l-15.3-15.3c-1.7-1.7-1.7-4.4 0-6 1.7-1.7 4.4-1.7 6 0l15.3 15.3c1.7 1.7 1.7 4.4 0 6-.8.8-1.9 1.2-3 1.2z" fill="#231412"/><path d="m875.3 247.2s-10.5-4.9-11.2 8.2-3.4 37.1-9.4 38.2-27-18-23.6-25.5 5.6-14.6-7.9-14.6-26.2 2.6-28.1 11.6-9.4 1.8-19.5 4.8-17.6 17.3-29.2 28.1c-11.6 10.9-47.9 6.4-46.1 31.8 1.9 25.5 12.7 41.6 13.9 56.2 1.1 14.6 16.9 13.9 24.3 8.6 7.5-5.2 13.9-10.9 31.8-11.2 18-.4 50.9-10.5 65.9 5.6s10.5 32.6 18.4 36.3 50.2 1.1 56.6-10.9 31.8-46.1 22.5-62.9c-9.4-16.9-21.4-39-30.7-50.6-9.4-11.6-16.1-16.5-17.2-28.5-1.1-11.7-5.6-22.6-10.5-25.2z" fill="#a8cf38"/><path d="m883.3 460.3c-6.1-5.8-2.7-16.1 5.6-17.5 5.2-.8 11-1.8 13.6-2.2 5.5-1 .8 21.3-6.1 24.2-3.3 1.5-8.9-.5-13.1-4.5z" fill="#a8cf38"/><path d="m868.6 431.3c-7.2 0-13.1-.7-15.7-2-5.3-2.5-6.7-8.2-8.2-14.1-1.7-6.7-3.8-15-11.4-23.1-9.8-10.5-30.3-7.9-46.7-5.8-5.8.7-11.3 1.4-16 1.5-15.2.3-21 4.4-27.7 9.2-.6.4-1.2.9-1.8 1.3-5.5 3.8-14.8 5.9-22 2.5-5.3-2.5-8.5-7.6-9.1-14.3-.4-5.7-2.6-12-5.1-19.2-3.6-10.3-7.6-21.9-8.7-37-1.5-20 17-24.9 30.4-28.5 7-1.9 13.7-3.6 17-6.8 4.1-3.8 7.6-8.1 11.1-12.2 6.3-7.5 12.2-14.6 19.8-16.9 5-1.5 9.3-.9 12.6-.6 1.3.2 2.9.4 3.6.2.1-.2.3-.5.4-1.3 2.1-10 12.9-15 32.3-15 6.7 0 11 1.7 13.2 5.1 3.2 5 .3 11.6-1.5 15.5-.1.4.3 2.5 3.1 6.3 5.1 6.8 12.8 12.3 15.6 13.1 2-2.6 5-14.2 6.1-34.1.3-5.6 2.3-9.6 5.7-11.7 5.1-3 10.9-.5 11.5-.2l.2.1c7.2 3.9 11.7 17.7 12.7 28.8.8 8.1 4.5 12.3 10.6 19.4 1.7 2 3.7 4.2 5.7 6.8 8.8 10.9 19.9 30.9 28.8 46.9l2.4 4.2c8.8 15.9-7 41.6-17.4 58.6-2.1 3.4-3.9 6.3-5 8.4-5.7 11-29.7 14.9-46.5 14.9zm-59.6-55.5c11.7 0 22.9 2.3 30.5 10.5 9.1 9.8 11.6 19.6 13.4 26.8 1.1 4.3 2 7.8 3.7 8.6 2.5 1.2 13.3 1.9 26.4.1 15.7-2.1 23-6.2 24.5-9.1 1.2-2.3 3.1-5.4 5.3-8.9 8.3-13.4 23.7-38.4 17.2-50l-2.4-4.2c-8.7-15.7-19.6-35.3-28-45.7-2-2.4-3.8-4.5-5.5-6.6-6.5-7.5-11.6-13.4-12.6-24.2-1.1-11.9-5.4-20.4-8.1-22-.8-.3-2.6-.7-3.5-.2s-1.5 2.3-1.6 4.8c-2.3 40.2-10.2 41.7-12.8 42.1-7.3 1.4-19.2-10.1-23.5-15.6-5-6.4-6.6-11.7-4.8-15.8 2.6-5.7 2.3-7.1 2.1-7.4 0 0-.9-1.2-6.1-1.2-14.1 0-22.8 3-23.9 8.2-1.9 9.2-9.1 8.3-13.4 7.8-2.9-.4-5.8-.7-9.1.3-5.2 1.6-10.1 7.4-15.7 14.2-3.6 4.3-7.4 8.8-11.8 13-4.9 4.6-12.5 6.6-20.6 8.8-15.6 4.2-25 7.6-24.1 19.7 1 14 4.9 25.1 8.3 34.8 2.7 7.8 5.1 14.5 5.6 21.3.3 3.6 1.7 6 4.2 7.2 4 1.9 10.1.6 13.5-1.8.6-.4 1.2-.8 1.8-1.2 7.2-5.1 14.6-10.4 32.4-10.8 4.2-.1 9.5-.8 15.1-1.5 7.4-.9 15.5-2 23.5-2z" fill="#231412"/><path d="m894 469.6c-4.8 0-9.9-2.8-13.5-6.1-4-3.7-5.5-9.3-3.8-14.6 1.7-5.4 6.1-9.3 11.7-10.2 6.7-1.1 11.4-1.8 13.6-2.2 2.6-.5 5.7.8 6.9 4.6 1.9 6.5-2.2 24.1-10.5 27.7-1.5.5-3 .8-4.4.8zm-7.8-12.4c3.4 3.1 7.3 4.3 8.6 3.7 2.7-1.2 5.9-11 5.9-15.7-3.2.5-7.6 1.2-11.2 1.8-2.3.4-4.2 2-4.9 4.3-.5 2.2 0 4.4 1.6 5.9z" fill="#231412"/><path d="m1048.3 274.2 35.2-17.7c-12.9 3.5-24.8 9.6-35.2 17.7z" fill="#043a4c"/><path d="m1120.3 253.3v6.3l-46.7 25.5h46.7v5 20 9h-47l47 22.7v3 7.9 1.4h-22.3l-62.6-32.9v32.8h-7-18.9c.2 55.5 45.3 100.5 100.8 100.5 55.7 0 100.8-45.1 100.8-100.8 0-9.6-1.3-18.9-3.9-27.7l-1-.2.8-.6c-11.3-38.8-45.3-67.8-86.7-71.9zm-44.8 165.8-7.8-6.2-7.8 6.2v-9.9l-9.7-2.2 7.8-6.2-4.3-9 9.7 2.2 4.3-9 4.3 9 9.7-2.2-4.3 9 7.8 6.2-9.7 2.2zm64-77 5.4-4.3-3-6.2 6.7 1.6 3-6.2 3 6.2 6.7-1.6-3 6.2 5.4 4.3-6.8 1.5v6.9l-5.4-4.3-5.4 4.3v-6.9zm28.3 75.3-5.4-4.3-5.4 4.3v-6.9l-6.8-1.5 5.4-4.3-3-6.2 6.7 1.6 3-6.2 3 6.2 6.7-1.6-3 6.2 5.4 4.3-6.8 1.5zm21.6-57.3 2 6.2h6.5l-5.3 3.8 2 6.2-5.2-3.8-5.3 3.8 2-6.2-5.2-3.8h6.5zm-3.6-53.7-6.8 1.5v6.9l-5.4-4.3-5.4 4.3v-6.9l-6.8-1.5 5.4-4.3-3-6.2 6.7 1.6 3-6.2 3 6.2 6.7-1.6-3 6.2z" fill="#043a4c"/><path d="m1028.5 354h7v-32.9l62.6 32.9h22.2v-1.4l-68-33.5h15.3l52.7 25.6v-3l-46.9-22.6h46.9v-9h-91.8z" fill="#fff"/><path d="m1083.6 256.4-35.2 17.7c-2.8 2.2-5.4 4.5-7.9 6.9l50.9-26.4c-2.7.5-5.3 1.1-7.8 1.8z" fill="#fff"/><path d="m1120.3 285.1h-46.7l46.7-25.5v-6.3c-3.1-.3-6.3-.5-9.5-.5l-60.7 32.3h-13.7c-1.5 1.6-2.9 3.3-4.3 5h88.3v-5z" fill="#fff"/><path d="m1110.8 252.8c-.1 0-.3 0-.4 0-6.5 0-12.9.6-19.1 1.8l-50.9 26.4c-1.4 1.3-2.7 2.7-4 4.1h13.7z" fill="#ef3936"/><path d="m1052.3 319.1 68 33.5v-7.9l-52.7-25.6z" fill="#ef3936"/><path d="m1028.5 310.1h91.8v-20h-88.3c-14.1 17.3-22.5 39.4-22.5 63.5v.4h18.9v-43.9z" fill="#ef3936"/><path d="m1077.4 400.8 4.3-9-9.7 2.2-4.3-8.9-4.3 8.9-9.7-2.2 4.4 9-7.8 6.1 9.7 2.2v10l7.7-6.2 7.8 6.2v-10l9.7-2.2z" fill="#fff"/><path d="m1169.1 404.7 3-6.3-6.7 1.6-3-6.2-3 6.2-6.7-1.6 3 6.3-5.4 4.3 6.7 1.5v6.9l5.4-4.3 5.4 4.3v-6.9l6.7-1.5z" fill="#fff"/><path d="m1151.7 346.2 5.4 4.4v-7l6.7-1.5-5.4-4.3 3-6.2-6.7 1.5-3-6.2-3 6.2-6.8-1.5 3.1 6.2-5.5 4.3 6.8 1.5v7z" fill="#fff"/><path d="m1176.6 297.5-3-6.3-3 6.3-6.7-1.6 3 6.2-5.4 4.3 6.8 1.6-.1 6.9 5.4-4.4 5.4 4.4v-6.9l6.8-1.6-5.5-4.3 3.1-6.2z" fill="#fff"/><path d="m1207.3 325.9c-.1-.3-.2-.6-.3-.8l-.8.6z" fill="#fff"/><path d="m1186.2 370.1-2.1 6.2 5.3-3.9 5.2 3.9-2-6.2 5.3-3.8h-6.5l-2-6.2-2 6.2h-6.5z" fill="#fff"/><path d="m1110.4 458.7c-57.9 0-105.1-47.1-105.1-105.1 0-57.9 47.1-105.1 105.1-105.1 57.9 0 105.1 47.1 105.1 105.1-.1 58-47.2 105.1-105.1 105.1zm0-201.6c-53.2 0-96.6 43.3-96.6 96.6 0 53.2 43.3 96.6 96.6 96.6 53.2 0 96.6-43.3 96.6-96.6-.1-53.3-43.4-96.6-96.6-96.6z" fill="#231412"/><path d="m1124.6 358.3h-115.1v-8.6h106.6v-96.4h8.5z" fill="#231412"/><path d="m312.1 619.6s7 5.4 26.9-6c12.2-7 15.5-28.1 31.5-17.9 17.5 11.1 23.2 67.3 3.5 76.4-19.7 9.2-36.3-23.2-46.3-24.9s-14.8-1.7-14.8-1.7" fill="#f47c20"/><path d="m359.6 672.2c4.5 1.8 9.3 2.2 14.3-.1 19.7-9.2 14-65.3-3.5-76.4-9.3-5.9-14.3-1.3-19.2 5 6.9 8 13.7 21.2 12.7 41.7-.6 12.3-2.3 22.1-4.3 29.8z" fill="#a8cf38"/><path d="m328.5 564.6s-72.1-21-111.4 13.1-32.8 67.3-58.1 71.2-16.6 20.1 3.1 18.8 23.6 16.2 76 33.6c52.4 17.5 98.7 10.5 98.7 10.5s-50.2-71.6-8.3-147.2z" fill="#f47c20"/><path d="m297.1 712.7c-43.2-91.8 5.2-153.1 5.2-153.1l-11.3-1s-59.4 52.2-27.5 149.6z" fill="#a8cf38"/><path d="m312.7 717.5c-18.8 0-46.3-2.2-76-12.1-27.7-9.2-41.9-18.3-52.3-25-9-5.8-14-9-22.1-8.4-12.3.8-22.3-4.5-23.2-12.3-.3-2.7.2-12 19.2-14.9 10.2-1.6 13.9-8.4 20.8-22.4 6.3-12.8 15-30.4 35.1-47.9 40.6-35.2 112.3-14.9 115.4-14l5.1 1.5-2.6 4.7c-16.8 30.3-20.6 63.4-11.3 98.5 7 26.4 19.2 44 19.3 44.2l3.9 5.6-6.8 1c-.6.1-9.9 1.5-24.5 1.5zm-148.6-54.1c9.6 0 16.1 4.2 24.9 9.8 10 6.4 23.8 15.2 50.4 24.1 39.4 13.1 75.7 12.1 90.2 11-4.4-7.6-11.8-21.9-16.8-40.6-6.6-24.7-10.1-61.7 9.4-100.2-16.8-3.9-71.1-13.5-102.3 13.5-18.8 16.3-26.7 32.3-33.1 45.2-6.8 13.8-12.2 24.7-27.2 27-9.3 1.4-12.1 4.4-12 5.6.2 1.9 5.4 5.4 14.1 4.8.9-.2 1.6-.2 2.4-.2z" fill="#231412"/><path d="m366.7 678c-11.6 0-21.6-10.1-29.3-17.9-3.7-3.7-8.3-8.4-10.5-8.8-9.4-1.6-14-1.6-14-1.6l-.1-8.5c.2 0 5.3 0 15.6 1.8 4.8.8 9.4 5.4 15.1 11.2 10.5 10.6 19.4 18.4 28.7 14.1 5.4-2.5 9-11 9.8-22.9 1.2-19.1-5.2-40.7-13.8-46.1-6.7-4.3-9.2-1.7-15.4 6.3-3.1 4.1-6.7 8.8-11.7 11.7-21.2 12.3-30.1 6.9-31.6 5.7l5.2-6.7s-.1-.1-.2-.2c.1 0 6.1 3.2 22.4-6.2 3.5-2 6.4-5.8 9.2-9.5 5.5-7.2 13-17.1 26.7-8.4 12.7 8.1 19 33.8 17.7 53.9-1 15.4-6.2 26.1-14.7 30-3.2 1.4-6.2 2.1-9.1 2.1z" fill="#231412"/><path d="m363.1 673.1-8.2-2.3c14-50-7.7-63.8-7.9-63.9l4.3-7.4c1.1.7 27.7 16.6 11.8 73.6z" fill="#231412"/><circle cx="204.3" cy="629.7" fill="#231412" r="7.9"/><path d="m259.5 709.5c-16.9-51.6-8.3-90.6 1.9-114.3 11.1-25.8 26.2-39.2 26.8-39.8l5.6 6.4c-.1.1-14.5 13-24.8 37.2-9.5 22.3-17.5 59.1-1.5 107.9z" fill="#231412"/><path d="m293.2 714.5c-22.8-48.5-20.1-88.7-13.9-113.8 6.8-27.4 19.1-43.1 19.6-43.7l6.7 5.3c-.1.1-11.8 15.2-18.1 40.9-5.8 23.7-8.3 61.6 13.4 107.7z" fill="#231412"/><circle cx="206.1" cy="627.3" fill="#fff" r="2.9"/><path d="m529 537.9h-60.8s14.7 101 26.4 111.5 57.2 10.5 68.9 0 26.4-111.5 26.4-111.5z" fill="#e17530"/><path d="m557.4 653.4 13.1 66.1c1.1 5.6-3.2 10.8-8.9 10.8h-65.2c-5.7 0-10-5.2-8.9-10.8l13.1-66.1" fill="#e17530"/><path d="m557.4 653.4h-56.7l-4.8 24.3c20.3 5.4 42.3 5.9 66.4 0z" fill="#773618"/><g fill="#231412"><path d="m529 661.5c-15.3 0-30.7-3-37.3-8.9-2.3-2.1-8.4-7.5-18.9-62-5.1-26.4-8.8-51.8-8.8-52-.2-1.2.2-2.5 1-3.4s2-1.5 3.2-1.5h121.7c1.2 0 2.4.5 3.2 1.5.8.9 1.2 2.2 1 3.4 0 .3-3.7 25.7-8.8 52-10.5 54.5-16.6 60-18.9 62-6.7 5.9-22.1 8.9-37.4 8.9zm-55.9-119.3c6.2 41.1 17.3 97.8 24.3 104.1 10 9 53.2 9 63.2 0 7-6.3 18.1-63 24.3-104.1z"/><path d="m561.6 734.6h-65.2c-4 0-7.8-1.8-10.3-4.9s-3.6-7.1-2.8-11.1l13.1-66.1 8.3 1.7-13.1 66.1c-.3 1.4.1 2.9 1 4s2.3 1.8 3.7 1.8h65.2c1.4 0 2.8-.6 3.7-1.8.9-1.1 1.3-2.6 1-4l-13.1-66.1 8.3-1.7 13.1 66.1c.8 3.9-.2 8-2.8 11.1-2.3 3.1-6.1 4.9-10.1 4.9z"/><path d="m589.8 542.2h-121.6c-2.3 0-4.3-1.9-4.3-4.3v-1.3c0-15.2 12.3-27.5 27.5-27.5h75.2c15.2 0 27.5 12.3 27.5 27.5v1.3c0 2.3-1.9 4.3-4.3 4.3zm-117.2-8.6h112.7c-1.4-9.1-9.3-16-18.7-16h-75.2c-9.5 0-17.3 7-18.8 16z"/><path d="m529 686.2c-11 0-22.1-1.3-33-4l2-8.3c20.6 5 41.4 5 61.9 0l2 8.3c-10.9 2.7-21.9 4-32.9 4z"/><path d="m448.4 593.2h128.6v8.5h-128.6z" transform="matrix(.3766 .9264 -.9264 .3766 873.0729 -102.5412)"/><path d="m491 585.5h111.9v8.5h-111.9z" transform="matrix(.3766 .9264 -.9264 .3766 887.2213 -139.01)"/><path d="m539.5 533.2h8.5v128.6h-8.5z" transform="matrix(.9264 .3766 -.3766 .9264 265.027 -160.7904)"/><path d="m505.3 533.8h8.5v111.9h-8.5z" transform="matrix(.9264 .3766 -.3766 .9264 259.5943 -148.4879)"/><path d="m488.5 546.9c-5 0-9-4-9-9s4-9 9-9 9 4 9 9-4 9-9 9zm0-9.5c-.3 0-.5.2-.5.5s.2.5.5.5.5-.2.5-.5-.2-.5-.5-.5z"/><path d="m529 546.9c-5 0-9-4-9-9s4-9 9-9 9 4 9 9-4 9-9 9zm0-9.5c-.3 0-.5.2-.5.5s.2.5.5.5.5-.2.5-.5-.2-.5-.5-.5z"/><path d="m568 546.9c-5 0-9-4-9-9s4-9 9-9 9 4 9 9-4.1 9-9 9zm0-9.5c-.3 0-.5.2-.5.5s.2.5.5.5.5-.2.5-.5-.2-.5-.5-.5z"/></g><path d="m873.3 565.8s42.5-7.3 62.5 29c0 0-26.5-11.3-65.4-8.2" fill="#f2d658"/><path d="m692.7 615c-2.3 5.1-4.1 10.9-5.5 17.4-8.8 43.5 44.1 79.1 84.5 62s50.6-78.5 62.9-83.6c12.2-5.1 46.7-14.5 37.8-49.2 0 0-15.1-27-43.8-11.4s-19.6 34.4-60 30.7c-29-2.7-53.8 2.6-68.7 21.9l-15.1 9z" fill="#d38f57"/><path d="m749.6 703.1c-15.7 0-31.9-5.7-45-16.4-17.6-14.4-25.7-35-21.6-55.1 1-5.1 2.4-9.8 4.1-14.2l-11.9-4.8 21.9-13c14.5-18.2 38.7-25.9 71.9-22.9 23.3 2.1 28-3.2 35.7-12 4.7-5.4 10.6-12.1 21.9-18.3 25.7-14 43.6 2.4 49.6 13l.3.5.1.5c8.9 35.1-21.8 47-36.5 52.7-1.4.5-2.7 1-3.8 1.5-2.8 1.2-7.4 11.2-11.5 20.1-10 21.9-23.8 51.9-51.4 63.5-7.5 3.3-15.6 4.9-23.8 4.9zm-55.3-92 4 1.6-1.8 4c-2.2 4.9-3.9 10.5-5.2 16.5-3.5 17.2 3.3 34.3 18.7 46.8 17.5 14.3 41.1 18.4 60 10.4 24.5-10.4 37.5-38.6 46.9-59.2 6.1-13.2 10.1-22 15.9-24.4 1.2-.5 2.5-1 4-1.6 18.4-7.1 37.6-16.8 31.5-42.1-2-3.2-14.8-21.8-37.8-9.3-10 5.4-15.1 11.3-19.6 16.4-8.2 9.3-15.2 17.3-42.9 14.8-31-2.8-52.2 3.8-64.9 20.3l-.5.6z" fill="#231412"/><path d="m935.8 599c-.6 0-1.1-.1-1.7-.3-.3-.1-26.1-10.8-63.4-7.8l-.7-8.5c24-1.9 43.3 1.4 55 4.5-19.6-21.8-49.6-17.1-51.1-16.8l-1.4-8.4c.5-.1 11.6-1.9 25.3.9 18.4 3.8 32.8 14.2 41.6 30.2.9 1.6.6 3.6-.6 4.9-.6.8-1.8 1.3-3 1.3z" fill="#231412"/><path d="m749 727.7-5.8-6.2c8.3-7.8 6.8-22.2 6.8-22.4l8.5-.9c0 .7 1.9 18.8-9.5 29.5z" fill="#231412"/><path d="m787.6 731.1c-3.7-2.3-24-6.8-37.2-9.3l1.6-8.4c5.6 1 33.7 6.4 40.2 10.5z" fill="#231412"/><path d="m754.2 721.7-2.1-8.3c1-.3 25.5-6.3 33.7-6.9l.6 8.5c-6.1.5-25.3 5-32.2 6.7z" fill="#231412"/><path d="m700.4 711-5.8-6.2c8.3-7.8 6.8-22.3 6.8-22.4l8.5-.9c0 .8 1.9 18.8-9.5 29.5z" fill="#231412"/><path d="m739 714.4c-3.7-2.3-24-6.8-37.2-9.3l1.6-8.4c5.6 1 33.7 6.4 40.2 10.5z" fill="#231412"/><path d="m705.7 705-2.1-8.3c.6-.1 14.3-3.6 24.7-5.5l1.6 8.4c-10.2 1.9-24.1 5.4-24.2 5.4z" fill="#231412"/><circle cx="851.1" cy="563.8" fill="#231412" r="6"/><path d="m1196.2 642.9h-171.8l-1.4-15.2h174.8z" fill="#b1b0b5"/><path d="m1025.9 674.9h-39.2l8.8-81.3h21.7z" fill="#b1b0b5"/><path d="m1234 674.9h-39.3l8.8-81.3h21.8z" fill="#b1b0b5"/><path d="m1025.9 679.2h-39.2c-1.2 0-2.4-.5-3.2-1.4s-1.2-2.1-1.1-3.3l8.7-81.3c.2-2.2 2.1-3.8 4.2-3.8h21.8c2.2 0 4 1.6 4.2 3.8l8.7 81.3c.1 1.2-.3 2.4-1.1 3.3-.6.9-1.7 1.4-3 1.4zm-34.4-8.5h29.7l-7.8-72.8h-14.1z" fill="#231412"/><path d="m1234 679.2h-39.2c-1.2 0-2.4-.5-3.2-1.4s-1.2-2.1-1.1-3.3l8.7-81.3c.2-2.2 2.1-3.8 4.2-3.8h21.8c2.2 0 4 1.6 4.2 3.8l8.7 81.3c.1 1.2-.3 2.4-1.1 3.3-.7.9-1.8 1.4-3 1.4zm-34.5-8.5h29.8l-7.8-72.8h-14.2z" fill="#231412"/><path d="m1023 623.4h174.8v8.5h-174.8z" fill="#231412"/><path d="m1205.3 613h-8.5c0-11.3-9.8-26.2-24.9-37.9-10.3-8-32-21.4-61.5-21.4-49.9 0-86.4 41.6-86.4 59.3h-8.5c0-25.6 44.4-67.8 94.9-67.8 23.8 0 47.5 8.2 66.7 23.2 17.4 13.5 28.2 30.6 28.2 44.6z" fill="#231412"/><path d="m1024.4 638.7h171.8v8.5h-171.8z" fill="#231412"/><path d="m1019.1 596.5h52.3v8.5h-52.3z" fill="#231412" transform="matrix(.188 .9822 -.9822 .188 1438.8651 -538.782)"/><path d="m1106.1 549.4h8.5v78.2h-8.5z" fill="#231412"/><path d="m1040.1 587.9h71.2v8.5h-71.2z" fill="#231412" transform="matrix(.07326598 .9973 -.9973 .07326598 1587.4331 -524.0658)"/><path d="m1171.2 576.2h8.5v50.8h-8.5z" fill="#231412" transform="matrix(.9811 .1933 -.1933 .9811 138.4973 -215.9268)"/><path d="m1140.8 556.5h8.5v71.2h-8.5z" fill="#231412" transform="matrix(.9973 .07325306 -.07325306 .9973 46.4518 -82.2881)"/><path d="m1260.9 720.9c-18.8 0-18.8 12.8-37.6 12.8s-18.8-12.8-37.6-12.8-18.8 12.8-37.6 12.8-18.8-12.8-37.6-12.8-18.8 12.8-37.6 12.8-18.8-12.8-37.6-12.8-18.8 12.8-37.6 12.8-18.8-12.8-37.6-12.8v-62.1c18.8 0 18.8 12.8 37.6 12.8s18.8-12.8 37.6-12.8 18.8 12.8 37.6 12.8 18.8-12.8 37.6-12.8 18.8 12.8 37.6 12.8 18.8-12.8 37.6-12.8 18.8 12.8 37.6 12.8 18.8-12.8 37.6-12.8z" fill="#02a8a7"/><path d="m1223.2 675.8c-10.7 0-16.3-3.8-21.2-7.1-4.5-3-8.3-5.6-16.4-5.6s-12 2.6-16.4 5.6c-4.9 3.3-10.5 7.1-21.2 7.1s-16.3-3.8-21.2-7.1c-4.5-3-8.3-5.6-16.4-5.6s-12 2.6-16.4 5.6c-4.9 3.3-10.5 7.1-21.2 7.1s-16.3-3.8-21.2-7.1c-4.5-3-8.3-5.6-16.4-5.6s-12 2.6-16.4 5.6c-4.9 3.3-10.5 7.1-21.2 7.1s-16.3-3.8-21.2-7.1c-4.5-3-8.3-5.6-16.4-5.6v-8.5c10.7 0 16.3 3.8 21.2 7.1 4.5 3 8.3 5.6 16.4 5.6s12-2.6 16.4-5.6c4.9-3.3 10.5-7.1 21.2-7.1s16.3 3.8 21.2 7.1c4.5 3 8.3 5.6 16.4 5.6s12-2.6 16.4-5.6c4.9-3.3 10.5-7.1 21.2-7.1s16.3 3.8 21.2 7.1c4.5 3 8.3 5.6 16.4 5.6s12-2.6 16.4-5.6c4.9-3.3 10.5-7.1 21.2-7.1s16.3 3.8 21.2 7.1c4.5 3 8.3 5.6 16.4 5.6s12-2.6 16.4-5.6c4.9-3.3 10.5-7.1 21.2-7.1v8.5c-8.1 0-12 2.6-16.4 5.6-4.9 3.3-10.4 7.1-21.2 7.1z" fill="#231412"/><path d="m1223.2 706.9c-10.7 0-16.3-3.8-21.2-7.1-4.5-3-8.3-5.6-16.4-5.6s-12 2.6-16.4 5.6c-4.9 3.3-10.5 7.1-21.2 7.1s-16.3-3.8-21.2-7.1c-4.5-3-8.3-5.6-16.4-5.6s-12 2.6-16.4 5.6c-4.9 3.3-10.5 7.1-21.2 7.1s-16.3-3.8-21.2-7.1c-4.5-3-8.3-5.6-16.4-5.6s-12 2.6-16.4 5.6c-4.9 3.3-10.5 7.1-21.2 7.1s-16.3-3.8-21.2-7.1c-4.5-3-8.3-5.6-16.4-5.6v-8.5c10.7 0 16.3 3.8 21.2 7.1 4.5 3 8.3 5.6 16.4 5.6s12-2.6 16.4-5.6c4.9-3.3 10.5-7.1 21.2-7.1s16.3 3.8 21.2 7.1c4.5 3 8.3 5.6 16.4 5.6s12-2.6 16.4-5.6c4.9-3.3 10.5-7.1 21.2-7.1s16.3 3.8 21.2 7.1c4.5 3 8.3 5.6 16.4 5.6s12-2.6 16.4-5.6c4.9-3.3 10.5-7.1 21.2-7.1s16.3 3.8 21.2 7.1c4.5 3 8.3 5.6 16.4 5.6s12-2.6 16.4-5.6c4.9-3.3 10.5-7.1 21.2-7.1v8.5c-8.1 0-12 2.6-16.4 5.6-4.9 3.3-10.4 7.1-21.2 7.1z" fill="#231412"/><path d="m1223.2 737.9c-10.7 0-16.3-3.8-21.2-7.1-4.5-3-8.3-5.6-16.4-5.6s-12 2.6-16.4 5.6c-4.9 3.3-10.5 7.1-21.2 7.1s-16.3-3.8-21.2-7.1c-4.5-3-8.3-5.6-16.4-5.6s-12 2.6-16.4 5.6c-4.9 3.3-10.5 7.1-21.2 7.1s-16.3-3.8-21.2-7.1c-4.5-3-8.3-5.6-16.4-5.6s-12 2.6-16.4 5.6c-4.9 3.3-10.5 7.1-21.2 7.1s-16.3-3.8-21.2-7.1c-4.5-3-8.3-5.6-16.4-5.6v-8.5c10.7 0 16.3 3.8 21.2 7.1 4.5 3 8.3 5.6 16.4 5.6s12-2.6 16.4-5.6c4.9-3.3 10.5-7.1 21.2-7.1s16.3 3.8 21.2 7.1c4.5 3 8.3 5.6 16.4 5.6s12-2.6 16.4-5.6c4.9-3.3 10.5-7.1 21.2-7.1s16.3 3.8 21.2 7.1c4.5 3 8.3 5.6 16.4 5.6s12-2.6 16.4-5.6c4.9-3.3 10.5-7.1 21.2-7.1s16.3 3.8 21.2 7.1c4.5 3 8.3 5.6 16.4 5.6s12-2.6 16.4-5.6c4.9-3.3 10.5-7.1 21.2-7.1v8.5c-8.1 0-12 2.6-16.4 5.6-4.9 3.3-10.4 7.1-21.2 7.1z" fill="#231412"/></svg>